<svg width="64" height="64" viewBox="0 0 64 64" fill="none" xmlns="http://www.w3.org/2000/svg">
<path d="M5.55776 7.33645C5.92414 6.29442 7.06587 5.74666 8.10792 6.11303L8.91165 6.39559C10.5557 6.97354 11.9521 7.46442 13.051 8.00362C14.226 8.58015 15.2336 9.29039 15.9914 10.3994C16.7433 11.4997 17.0538 12.707 17.1971 14.0307C17.2612 14.6232 17.295 15.279 17.3129 15.9999H45.6813C50.1747 15.9999 54.2195 15.9999 55.4032 17.5388C56.5872 19.0777 56.1243 21.3964 55.1987 26.0339L53.8659 32.4999C53.0256 36.577 52.6053 38.6154 51.1341 39.8143C49.6629 41.0132 47.5816 41.0132 43.4189 41.0132H29.2779C21.8407 41.0132 18.1222 41.0132 15.8118 38.5764C13.5014 36.1394 13.3328 33.5508 13.3328 25.7066V18.7688C13.3328 16.7956 13.3301 15.475 13.2203 14.4611C13.1154 13.4922 12.9295 13.0084 12.6889 12.6562C12.454 12.3125 12.0976 11.9914 11.289 11.5946C10.4281 11.1722 9.25805 10.7574 7.47776 10.1315L6.7812 9.88658C5.73915 9.52023 5.19142 8.3785 5.55776 7.33645Z" fill="#6AEA4A" fill-opacity="0.8"/>
<path d="M20 48C22.2091 48 24 49.7909 24 52C24 54.2091 22.2091 56 20 56C17.7909 56 16 54.2091 16 52C16 49.7909 17.7909 48 20 48Z" fill="#6AEA4A" fill-opacity="0.8"/>
<path d="M44 48.0002C46.2091 48.0002 48 49.7909 48 52.0002C48 54.2093 46.2091 56.0002 44 56.0002C41.7909 56.0002 40 54.2093 40 52.0002C40 49.7909 41.7909 48.0002 44 48.0002Z" fill="#6AEA4A" fill-opacity="0.8"/>
</svg>
