<svg width="288" height="62" viewBox="0 0 288 62" fill="none" xmlns="http://www.w3.org/2000/svg">
<g clip-path="url(#clip0_10416_316)">
<path fill-rule="evenodd" clip-rule="evenodd" d="M13.5024 36.3243L17.903 49.1044C18.2912 50.2319 19.112 51.1598 20.1854 51.6833C21.2589 52.2069 22.4953 52.2824 23.6229 51.8942C24.5277 51.5826 25.5276 51.2383 26.4325 50.9268C27.5614 50.538 28.4892 49.7172 29.0114 48.6443C29.5349 47.5709 29.6105 46.3344 29.2223 45.2069C28.4966 43.0993 27.5116 40.2386 26.7863 38.1325C26.3976 37.0035 25.5768 36.0757 24.5039 35.5536C23.4319 35.0296 22.1954 34.954 21.0665 35.3427L16.8386 36.7985L16.339 35.3476C13.6545 27.5513 17.7988 19.0568 25.5936 16.3728L25.7028 16.3352C33.4977 13.6512 41.9931 17.7936 44.6776 25.5898L45.1713 27.0237L40.9434 28.4795C39.8159 28.8677 38.8881 29.6885 38.364 30.7605C37.8405 31.834 37.7649 33.0704 38.1537 34.1994C38.8818 36.314 39.8727 39.1917 40.6013 41.3078C40.99 42.4367 41.8108 43.3646 42.8837 43.8867C43.9572 44.4102 45.1936 44.4858 46.3212 44.0976C47.226 43.786 48.2259 43.4417 49.1308 43.1301C50.2597 42.7414 51.1876 41.9206 51.7097 40.8477C52.2337 39.7757 52.3093 38.5392 51.9206 37.4103L47.5141 24.6131C44.2905 15.2511 34.0882 10.275 24.7261 13.4987L24.6169 13.5363C15.2549 16.7599 10.2788 26.9623 13.5024 36.3243Z" fill="#6AEA4A"/>
</g>
<path d="M94.4394 36.3349H74.3609C74.4297 38.5716 75.0319 40.3437 76.1675 41.6513C77.303 42.9589 78.7482 43.8191 80.5032 44.2321C82.2581 44.645 84.1335 44.6106 86.1293 44.1288C88.1251 43.6471 90.0177 42.7352 91.807 41.3932L93.9748 44.5934C92.2887 45.901 90.5338 46.8645 88.7101 47.4838C86.8863 48.1032 85.0626 48.4301 83.2388 48.4645C78.9375 48.5678 75.6513 47.3806 73.3802 44.9031C71.1091 42.3911 69.9736 38.8985 69.9736 34.4251C69.9736 30.6055 71.0403 27.5602 73.1738 25.2891C75.3416 23.0181 78.473 21.8997 82.5678 21.9341C85.2518 21.9341 87.5401 22.4847 89.4327 23.5858C91.3252 24.687 92.7189 26.3215 93.6135 28.4893C94.0609 29.556 94.3362 30.7432 94.4394 32.0508C94.577 33.3584 94.577 34.7864 94.4394 36.3349ZM82.7743 25.7537C80.4344 25.7537 78.4386 26.3731 76.7869 27.6118C75.1696 28.8162 74.3609 30.6228 74.3609 33.0315H90.7747C90.7747 30.7604 90.0521 28.9883 88.6068 27.7151C87.196 26.4075 85.2518 25.7537 82.7743 25.7537ZM99.0602 45.0063L101.486 42.3739C102.553 43.1653 103.62 43.7847 104.686 44.2321C105.753 44.645 106.837 44.8342 107.938 44.7998C108.592 44.7998 109.211 44.7138 109.796 44.5418C110.381 44.3697 110.932 44.0772 111.448 43.6643C112.102 43.1825 112.532 42.5632 112.738 41.8061C112.979 41.0491 112.979 40.3265 112.738 39.6383C112.463 38.8812 111.964 38.2791 111.241 37.8317C110.519 37.3844 109.659 37.0059 108.661 36.6962C107.697 36.3521 106.682 36.008 105.615 35.6639C104.583 35.2854 103.62 34.8208 102.725 34.2703C101.176 33.2379 100.179 32.068 99.7312 30.7604C99.2839 29.4184 99.2839 28.1108 99.7312 26.8376C100.213 25.53 101.056 24.4289 102.26 23.5342C103.499 22.6395 105.03 22.1234 106.854 21.9857C108.609 21.8825 110.312 22.089 111.964 22.6051C113.616 23.1213 114.906 23.8439 115.835 24.773L113.254 27.2505C112.394 26.6656 111.465 26.2354 110.467 25.9601C109.469 25.6849 108.506 25.5472 107.577 25.5472C106.476 25.5816 105.529 25.8397 104.738 26.3215C103.981 26.8032 103.551 27.5774 103.448 28.6442C103.379 29.6421 103.706 30.4335 104.428 31.0185C105.151 31.569 106.149 32.068 107.422 32.5153C108.695 32.9282 110.072 33.41 111.551 33.9606C113.272 34.6488 114.596 35.6467 115.526 36.9543C116.489 38.2274 116.782 39.8619 116.403 41.8577C116.162 43.7159 115.405 45.1783 114.132 46.2451C112.893 47.3118 111.379 47.9828 109.59 48.2581C107.8 48.5334 105.959 48.4129 104.067 47.8968C102.209 47.3462 100.54 46.3827 99.0602 45.0063ZM141.496 44.645C139.707 46.2623 137.832 47.3462 135.87 47.8968C133.909 48.4473 131.999 48.5334 130.141 48.1548C128.317 47.8107 126.648 47.0537 125.134 45.8838C123.654 44.6794 122.467 43.1653 121.573 41.3416C120.678 39.4834 120.231 37.35 120.231 34.9413C120.231 32.5325 120.661 30.4335 121.521 28.6442C122.416 26.8204 123.603 25.358 125.083 24.2568C126.597 23.1557 128.283 22.4503 130.141 22.1406C131.999 21.8309 133.909 21.9685 135.87 22.5535C137.866 23.1041 139.759 24.1536 141.548 25.7021L138.967 28.6442C137.453 27.3366 135.836 26.5451 134.115 26.2698C132.429 25.9601 130.846 26.1322 129.367 26.786C127.887 27.4054 126.683 28.4205 125.754 29.8313C124.824 31.2077 124.36 32.911 124.36 34.9413C124.36 37.1091 124.824 38.9501 125.754 40.4641C126.717 41.9438 127.956 43.0277 129.47 43.7159C130.984 44.3697 132.584 44.5418 134.27 44.2321C135.991 43.9224 137.591 43.0277 139.07 41.5481L141.496 44.645ZM167.233 48H163.156V45.316C162.468 46.3483 161.487 47.1225 160.214 47.6387C158.941 48.1548 157.547 48.4301 156.033 48.4645C154.519 48.5334 153.039 48.3613 151.594 47.9484C150.149 47.501 148.927 46.83 147.929 45.9354C146.897 45.0407 146.088 43.9052 145.503 42.5287C144.953 41.1523 144.677 39.5695 144.677 37.7801V22.1922H148.807V37.7801C148.807 40.1544 149.478 41.8922 150.82 42.9933C152.196 44.0944 153.951 44.645 156.085 44.645C157.151 44.645 158.218 44.4041 159.285 43.9224C160.386 43.4406 161.298 42.7008 162.02 41.7029C162.777 40.6706 163.156 39.363 163.156 37.7801V22.1922H167.233V48ZM176.387 36.851V26.0118H171.897V22.1922H176.387V11.8691H180.465V22.1922H185.007V26.0118H180.465V36.851C180.465 39.0533 180.534 40.6706 180.671 41.7029C180.843 42.7008 181.17 43.3374 181.652 43.6127C182.134 43.888 182.839 44.0428 183.768 44.0772H185.059V48.1548H183.923C182.34 48.1548 181.05 48.0172 180.052 47.7419C179.054 47.4322 178.28 46.8817 177.729 46.0902C177.213 45.2988 176.852 44.1632 176.645 42.6836C176.473 41.2039 176.387 39.2598 176.387 36.851ZM197.5 48.2581C195.091 48.1893 193.078 47.5183 191.461 46.2451C189.843 44.9375 189.035 43.0449 189.035 40.5674C189.035 37.9866 189.792 35.9736 191.306 34.5283C192.82 33.0487 194.884 32.1024 197.5 31.6895C200.115 31.2766 203.04 31.3626 206.274 31.9476V30.0894C206.274 28.885 205.896 27.9387 205.139 27.2505C204.382 26.5279 203.401 26.0462 202.197 25.8053C201.027 25.5644 199.788 25.5472 198.48 25.7537C197.207 25.9257 196.003 26.3215 194.867 26.9408C193.732 27.5258 192.854 28.3001 192.235 29.2635L189.706 26.5795C190.772 25.2719 192.063 24.2568 193.577 23.5342C195.125 22.8116 196.725 22.3471 198.377 22.1406C200.029 21.9341 201.629 21.9857 203.177 22.2954C204.726 22.6051 206.085 23.1729 207.255 23.9988C208.39 24.687 209.165 25.5816 209.578 26.6828C210.025 27.7495 210.283 28.9883 210.352 30.3991C210.421 31.8099 210.455 33.324 210.455 34.9413V48H206.326V45.5741C205.053 46.5031 203.642 47.1914 202.093 47.6387C200.545 48.086 199.014 48.2925 197.5 48.2581ZM206.223 41.9094V35.1477C202.128 34.6316 198.876 34.7692 196.467 35.5606C194.059 36.3521 192.854 38.0038 192.854 40.5157C192.854 41.6169 193.164 42.4771 193.783 43.0965C194.437 43.7159 195.263 44.1288 196.261 44.3353C197.293 44.5418 198.411 44.5762 199.616 44.4385C200.82 44.3009 202.007 44.0084 203.177 43.5611C204.347 43.1137 205.362 42.5632 206.223 41.9094ZM238.218 48H234.141V32.6702C234.141 31.0185 233.779 29.6937 233.057 28.6958C232.368 27.6979 231.474 26.9925 230.373 26.5795C229.306 26.1322 228.188 25.9085 227.018 25.9085C225.882 25.9085 224.747 26.1494 223.611 26.6311C222.51 27.1129 221.581 27.8527 220.824 28.8506C220.067 29.8485 219.688 31.1217 219.688 32.6702V48H215.611V22.1922H219.688V24.9795C220.48 23.9127 221.564 23.1385 222.94 22.6567C224.316 22.1406 225.744 21.8825 227.224 21.8825C229.22 21.8825 231.044 22.2954 232.695 23.1213C234.381 23.9471 235.723 25.1687 236.721 26.786C237.719 28.3689 238.218 30.3303 238.218 32.6702V48ZM246.855 36.851V26.0118H242.364V22.1922H246.855V11.8691H250.932V22.1922H255.474V26.0118H250.932V36.851C250.932 39.0533 251.001 40.6706 251.139 41.7029C251.311 42.7008 251.638 43.3374 252.119 43.6127C252.601 43.888 253.307 44.0428 254.236 44.0772H255.526V48.1548H254.39C252.808 48.1548 251.517 48.0172 250.519 47.7419C249.521 47.4322 248.747 46.8817 248.197 46.0902C247.68 45.2988 247.319 44.1632 247.113 42.6836C246.941 41.2039 246.855 39.2598 246.855 36.851ZM283.865 36.3349H263.786C263.855 38.5716 264.457 40.3437 265.593 41.6513C266.728 42.9589 268.173 43.8191 269.928 44.2321C271.683 44.645 273.559 44.6106 275.554 44.1288C277.55 43.6471 279.443 42.7352 281.232 41.3932L283.4 44.5934C281.714 45.901 279.959 46.8645 278.135 47.4838C276.311 48.1032 274.488 48.4301 272.664 48.4645C268.363 48.5678 265.076 47.3806 262.805 44.9031C260.534 42.3911 259.399 38.8985 259.399 34.4251C259.399 30.6055 260.465 27.5602 262.599 25.2891C264.767 23.0181 267.898 21.8997 271.993 21.9341C274.677 21.9341 276.965 22.4847 278.858 23.5858C280.75 24.687 282.144 26.3215 283.039 28.4893C283.486 29.556 283.761 30.7432 283.865 32.0508C284.002 33.3584 284.002 34.7864 283.865 36.3349ZM272.199 25.7537C269.86 25.7537 267.864 26.3731 266.212 27.6118C264.595 28.8162 263.786 30.6228 263.786 33.0315H280.2C280.2 30.7604 279.477 28.9883 278.032 27.7151C276.621 26.4075 274.677 25.7537 272.199 25.7537Z" fill="white"/>
<defs>
<clipPath id="clip0_10416_316">
<rect width="48" height="48" fill="white" transform="translate(0 15.6272) rotate(-19)"/>
</clipPath>
</defs>
</svg>
